{"title":"Adrenaline 2015 HC SUBS WEB-DL MooSeKnUcKle RG","uid":12400074,"size":584223704,"categoryP":"video","categoryS":"movies","magnet":"?xt=urn:btih:9c2d88461065c356a9cb9519e881c2d8bf8f657e&amp;dn=Adrenaline+2015+HC+SUBS+WEB-DL+MooSeKnUcKle+RG&amp;tr=udp%3A%2F%2Ftracker.openbittorrent.com%3A80&amp;tr=udp%3A%2F%2Fopen.demonii.com%3A1337&amp;tr=udp%3A%2F%2Ftracker.coppersurfer.tk%3A6969&amp;tr=udp%3A%2F%2Fexodus.desync.com%3A6969","seeders":2,"leechers":0,"uploader":"xxxlavalxxx","files":12,"time":1442011046,"description":" &lt;a href=&quot;http://extraimago.com/image/mfF&quot; rel=&quot;nofollow&quot; target=&quot;_NEW&quot;&gt;http://extraimago.com/image/mfF&lt;/a&gt;\n &lt;a href=&quot;\nhttp://www.imdb.com/title/tt2458952/&quot; rel=&quot;nofollow&quot; target=&quot;_NEW&quot;&gt;\nhttp://www.imdb.com/title/tt2458952/&lt;/a&gt;\n\n\nA drag racer's life is turned upside down after a near fatal car crash, leaving him semi paraplegic. Forced to face his new circumstance, he struggles to walk, to trust, to love, and ultimately, race again.\n\nDirector: Joseph Quinn Simpkins\nWriters: Alex Chatfield, Michael Rosander\nStars: Charlene Amoia, Cameron Arnett, Deena Beasley \nGenres: Drama\nLanguage: English\n\n\nGeneral\nComplete name                            : Adrenaline 2015 HC SUBS WEB-DL MooSeKnUcKle RG\nFormat                                   : MPEG-4\nFormat profile                           : Base Media\nCodec ID                                 : isom\nFile size                                : 538 MiB\nDuration                                 : 1h 33mn\nOverall bit rate                         : 804 Kbps\nWriting application                      : Lavf56.40.101\n\nVideo\nID                                       : 1\nFormat                                   : AVC\nFormat/Info                              : Advanced Video Codec\nFormat profile                           : &lt;a class=&quot;__cf_email__&quot; href=&quot;/cdn-cgi/l/email-protection&quot; data-cfemail=&quot;0f476668674f433c213e&quot;&gt;[email&amp;#160;protected]&lt;/a&gt;&lt;script data-cfhash='f9e31' type=&quot;text/javascript&quot;&gt;\n/* &lt;![CDATA[ */!function(){try{var t=&quot;currentScript&quot;in document?document.currentScript:function(){for(var t=document.getElementsByTagName(&quot;script&quot;),e=t.length;e--;)if(t[e].getAttribute(&quot;data-cfhash&quot;))return t[e]}();if(t&amp;&amp;t.previousSibling){var e,r,n,i,c=t.previousSibling,a=c.getAttribute(&quot;data-cfemail&quot;);if(a){for(e=&quot;&quot;,r=parseInt(a.substr(0,2),16),n=2;a.length-n;n+=2)i=parseInt(a.substr(n,2),16)^r,e+=String.fromCharCode(i);e=document.createTextNode(e),c.parentNode.replaceChild(e,c)}t.parentNode.removeChild(t);}}catch(u){}}()/* ]]&gt; */&lt;/script&gt;\nFormat settings, CABAC                   : Yes\nFormat settings, ReFrames                : 4 frames\nCodec ID                                 : avc1\nCodec ID/Info                            : Advanced Video Coding\nDuration                                 : 1h 33mn\nBit rate                                 : 734 Kbps\nWidth                                    : 1 280 pixels\nHeight                                   : 640 pixels\nDisplay aspect ratio                     : 2.000\nFrame rate mode                          : Constant\nFrame rate                               : 25.000 fps\nColor space                              : YUV\nChroma subsampling                       : 4:2:0\nBit depth                                : 8 bits\nScan type                                : Progressive\nBits/(Pixel*Frame)                       : 0.036\nStream size                              : 491 MiB (91%)\nWriting library                          : x264 core 138 r2358 9e941d1\n\n\nAudio\nID                                       : 2\nFormat                                   : AAC\nFormat/Info                              : Advanced Audio Codec\nFormat profile                           : HE-AAC / LC\nCodec ID                                 : 40\nDuration                                 : 1h 33mn\nBit rate mode                            : Constant\nBit rate                                 : 66.2 Kbps\nChannel(s)                               : 2 channels\nChannel positions                        : Front: L R\nSampling rate                            : 44.1 KHz / 22.05 KHz\nCompression mode                         : Lossy\nStream size                              : 43.5 MiB (8%)\nLanguage                                 : English\n\nGREETS\n,MenaceIISociety,jiinx,SiMPLE,\n,VAiN,ACAB,Hive,CM8,Unevano,SeeN,Limey,TED,mrtoke09, jamoi ,smittyman,DS,choas,H3LL2P4Y\n\n &lt;a href=&quot;\nhttp://extraimago.com/image/mfH&quot; rel=&quot;nofollow&quot; target=&quot;_NEW&quot;&gt;\nhttp://extraimago.com/image/mfH&lt;/a&gt; &lt;a href=&quot;\nhttp://extraimago.com/image/mfk&quot; rel=&quot;nofollow&quot; target=&quot;_NEW&quot;&gt;\nhttp://extraimago.com/image/mfk&lt;/a&gt; &lt;a href=&quot;\nhttp://extraimago.com/image/mfo&quot; rel=&quot;nofollow&quot; target=&quot;_NEW&quot;&gt;\nhttp://extraimago.com/image/mfo&lt;/a&gt; &lt;a href=&quot;\nhttp://extraimago.com/image/mft&quot; rel=&quot;nofollow&quot; target=&quot;_NEW&quot;&gt;\nhttp://extraimago.com/image/mft&lt;/a&gt; &lt;a href=&quot;\nhttp://extraimago.com/image/mfx&quot; rel=&quot;nofollow&quot; target=&quot;_NEW&quot;&gt;\nhttp://extraimago.com/image/mfx&lt;/a&gt; &lt;a href=&quot;\nhttp://extraimago.com/image/mf6&quot; rel=&quot;nofollow&quot; target=&quot;_NEW&quot;&gt;\nhttp://extraimago.com/image/mf6&lt;/a&gt; &lt;a href=&quot;\nhttp://extraimago.com/image/mfV&quot; rel=&quot;nofollow&quot; target=&quot;_NEW&quot;&gt;\nhttp://extraimago.com/image/mfV&lt;/a&gt;","torrent":{"xt":"urn:btih:9c2d88461065c356a9cb9519e881c2d8bf8f657e","amp;dn":"Adrenaline+2015+HC+SUBS+WEB-DL+MooSeKnUcKle+RG","amp;tr":["udp%3A%2F%2Ftracker.openbittorrent.com%3A80","udp%3A%2F%2Fopen.demonii.com%3A1337","udp%3A%2F%2Ftracker.coppersurfer.tk%3A6969","udp%3A%2F%2Fexodus.desync.com%3A6969"],"infoHash":"9c2d88461065c356a9cb9519e881c2d8bf8f657e","infoHashBuffer":{"type":"Buffer","data":[156,45,136,70,16,101,195,86,169,203,149,25,232,129,194,216,191,143,101,126]},"announce":[],"urlList":[]}}